<?xml version="1.0" encoding="UTF-8"?>
<svg version="1.1" xmlns="http://www.w3.org/2000/svg" width="720" height="90">
<path d="M0 0 C237.6 0 475.2 0 720 0 C720 29.7 720 59.4 720 90 C482.4 90 244.8 90 0 90 C0 60.3 0 30.6 0 0 Z " fill="#03193A" transform="translate(0,0)"/>
<path d="M0 0 C22.11 0 44.22 0 67 0 C67 22.11 67 44.22 67 67 C44.89 67 22.78 67 0 67 C0 44.89 0 22.78 0 0 Z " fill="#FCB94D" transform="translate(176,12)"/>
<path d="M0 0 C21.78 0 43.56 0 66 0 C66 21.78 66 43.56 66 66 C44.22 66 22.44 66 0 66 C0 44.22 0 22.44 0 0 Z " fill="#FEFBF5" transform="translate(13,12)"/>
<path d="M0 0 C21.78 0 43.56 0 66 0 C66 21.78 66 43.56 66 66 C44.22 66 22.44 66 0 66 C0 44.22 0 22.44 0 0 Z " fill="#FDBA4E" transform="translate(96,12)"/>
<path d="M0 0 C0.80179688 0.00451172 1.60359375 0.00902344 2.4296875 0.01367188 C4.41149006 0.02546832 6.39325433 0.04340395 8.375 0.0625 C8.40026605 7.73461202 8.41783123 15.4067134 8.42993164 23.07885742 C8.43497377 25.69116619 8.44180725 28.30347211 8.45043945 30.91577148 C8.46251036 34.66130268 8.46822935 38.40679672 8.47265625 42.15234375 C8.47781754 43.32836655 8.48297882 44.50438934 8.48829651 45.71604919 C8.48837204 46.79709427 8.48844757 47.87813934 8.48852539 48.99194336 C8.490746 49.94902695 8.49296661 50.90611053 8.49525452 51.89219666 C8.375 54.0625 8.375 54.0625 7.375 55.0625 C-2.88426387 56.03780908 -10.26878182 55.68128668 -18.625 49.0625 C-19.5325 48.485 -20.44 47.9075 -21.375 47.3125 C-26.43244806 42.25505194 -29.98277821 36.78809568 -30.1875 29.5 C-29.57727808 20.08135737 -26.64601627 13.45256452 -19.625 7.0625 C-12.80645834 1.92906438 -8.56549769 -0.09038269 0 0 Z " fill="#FCBB54" transform="translate(234.625,11.9375)"/>
<path d="M0 0 C21.78 0 43.56 0 66 0 C66 9.57 66 19.14 66 29 C64.38778173 30.61221827 62.73963329 30.32619292 60.5 30.4375 C52.79978756 30.3874336 46.12226291 27.5032773 39.03759766 24.77392578 C36.13279379 23.67061542 33.19683696 22.67220138 30.25 21.6875 C29.34765625 21.38199219 28.4453125 21.07648437 27.515625 20.76171875 C23.35091416 19.500665 19.48885524 18.87426545 15.13671875 18.90234375 C14.25048828 18.90556641 13.36425781 18.90878906 12.45117188 18.91210938 C11.0831543 18.92467773 11.0831543 18.92467773 9.6875 18.9375 C8.29047852 18.94426758 8.29047852 18.94426758 6.86523438 18.95117188 C4.57679513 18.96290746 2.28838914 18.98084139 0 19 C0 12.73 0 6.46 0 0 Z " fill="#FDBA4D" transform="translate(13,12)"/>
<path d="M0 0 C11.22723674 1.12272367 11.22723674 1.12272367 16 3.3125 C17.00804688 3.75980469 18.01609375 4.20710938 19.0546875 4.66796875 C20.02664062 5.10753906 20.99859375 5.54710937 22 6 C25.30982701 7.39955593 28.64005666 8.72572651 32 10 C32.76441406 10.30164062 33.52882812 10.60328125 34.31640625 10.9140625 C45.66932755 14.91657512 55.11422116 13.83812393 66 9 C66 15.93 66 22.86 66 30 C44.22 30 22.44 30 0 30 C0 20.1 0 10.2 0 0 Z " fill="#FEBA4D" transform="translate(13,48)"/>
<path d="M0 0 C-1.97234143 1.48913974 -3.94939397 2.9640828 -5.96484375 4.39453125 C-13.32716968 9.6866586 -18.12744485 14.97768884 -20 24 C-21.06485082 31.2835796 -20.09529439 36.55632172 -15.984375 42.703125 C-12.57251511 46.65228566 -8.48824141 49.39296869 -4 52 C-3.41992188 52.38929687 -2.83984375 52.77859375 -2.2421875 53.1796875 C1.35686237 54.49641306 4.95421048 54.20683294 8.75 54.125 C9.93916016 54.11146484 9.93916016 54.11146484 11.15234375 54.09765625 C13.10169281 54.07417012 15.05088575 54.03830137 17 54 C17 58.29 17 62.58 17 67 C-5.11 67 -27.22 67 -50 67 C-50 66.67 -50 66.34 -50 66 C-28.22 66 -6.44 66 16 66 C16 64.68 16 63.36 16 62 C14.91203125 62.04640625 13.8240625 62.0928125 12.703125 62.140625 C-1.50813416 62.56566494 -13.30920354 60.16562162 -24.00390625 50.1171875 C-30.333996 43.37742597 -32.84500616 36.70574279 -32.609375 27.421875 C-31.45476213 20.93827964 -28.37878396 15.3754177 -25.04199219 9.75585938 C-24.15561457 8.26222587 -23.3253702 6.73551064 -22.5078125 5.203125 C-17.39351623 -2.5927212 -8.25925614 -0.66891613 0 0 Z " fill="#F7B851" transform="translate(226,12)"/>
<path d="M0 0 C1.0621875 0.31324219 2.124375 0.62648437 3.21875 0.94921875 C8.32380601 2.45807292 13.21299528 4.05062527 18.0625 6.25 C23.63900704 8.60187117 29.04276802 8.36848858 35 8 C35 9.98 35 11.96 35 14 C29.4816318 17.33415381 23.20539597 16.63680498 17 16 C11.65943342 14.60533836 6.61587205 12.67850032 1.5 10.625 C0.17011069 10.10980595 -1.16061852 9.5967746 -2.4921875 9.0859375 C-4.92963875 8.14944587 -7.35947807 7.19898735 -9.78710938 6.23681641 C-15.07326923 4.20188587 -19.70562006 2.75295866 -25.375 2.375 C-26.96441406 2.26285156 -26.96441406 2.26285156 -28.5859375 2.1484375 C-29.78089844 2.07496094 -29.78089844 2.07496094 -31 2 C-31 0.68 -31 -0.64 -31 -2 C-20.21648183 -4.02292928 -10.37183053 -3.42328676 0 0 Z " fill="#FEFBF6" transform="translate(44,33)"/>
<path d="M0 0 C1.4540625 0.0309375 1.4540625 0.0309375 2.9375 0.0625 C2.1125 1.0525 1.2875 2.0425 0.4375 3.0625 C-6.03588828 11.79692821 -12.47901626 22.11169524 -11.58203125 33.31640625 C-10.01791783 41.58386291 -6.95519455 48.0283713 -0.0625 53.0625 C8.97345524 58.37848997 17.43188354 61.25796308 27.875 61.6875 C28.65423828 61.72617188 29.43347656 61.76484375 30.23632812 61.8046875 C32.13637379 61.89794127 34.03690278 61.98125962 35.9375 62.0625 C35.9375 63.3825 35.9375 64.7025 35.9375 66.0625 C13.80523465 66.8428737 13.80523465 66.8428737 4.9375 62.0625 C3.99519531 61.56492188 3.05289063 61.06734375 2.08203125 60.5546875 C-6.88799847 55.34940709 -12.51114389 48.83905302 -16.0625 39.0625 C-17.8416715 24.78464872 -13.96238236 14.43907878 -5.515625 2.92578125 C-3.28618593 0.06706502 -3.28618593 0.06706502 0 0 Z " fill="#FEF9F2" transform="translate(206.0625,11.9375)"/>
<path d="M0 0 C12.90367896 -1.65230035 24.68257024 3.93735244 36.3515625 8.80078125 C46.06308355 12.78960748 55.58200355 15.0596543 66 12 C66.1875 14.375 66.1875 14.375 66 17 C62.42195727 19.38536182 59.76834432 19.38423118 55.625 19.375 C54.91472656 19.37411377 54.20445313 19.37322754 53.47265625 19.37231445 C45.05078482 19.18681483 37.71864925 16.44131121 29.9375 13.4375 C20.149898 9.6981865 10.4241958 8.44719183 0 8 C0 5.36 0 2.72 0 0 Z " fill="#FDBA50" transform="translate(13,35)"/>
<path d="M0 0 C0.80179688 0.00451172 1.60359375 0.00902344 2.4296875 0.01367188 C4.41149006 0.02546832 6.39325433 0.04340395 8.375 0.0625 C8.375 0.7225 8.375 1.3825 8.375 2.0625 C7.529375 2.16046875 6.68375 2.2584375 5.8125 2.359375 C-4.97883479 3.78186913 -13.3377498 6.59832665 -20.625 15.0625 C-23.76954463 20.47712319 -26.14933923 26.79971093 -24.625 33.0625 C-21.48805669 40.66218906 -16.8848009 45.31505992 -9.625 49.0625 C-6.06454823 50.24931726 -3.18691663 50.15939832 0.5625 50.125 C1.83480469 50.11597656 3.10710937 50.10695312 4.41796875 50.09765625 C5.39378906 50.08605469 6.36960938 50.07445312 7.375 50.0625 C7.375 51.7125 7.375 53.3625 7.375 55.0625 C-2.97158154 55.75569529 -10.14560679 55.77885106 -18.625 49.0625 C-19.5325 48.485 -20.44 47.9075 -21.375 47.3125 C-26.43244806 42.25505194 -29.98277821 36.78809568 -30.1875 29.5 C-29.57727808 20.08135737 -26.64601627 13.45256452 -19.625 7.0625 C-12.80645834 1.92906438 -8.56549769 -0.09038269 0 0 Z " fill="#FEF9F1" transform="translate(234.625,11.9375)"/>
<path d="M0 0 C3.26569439 0.90713733 3.90103778 1.84448794 5.75 4.75 C7.1103449 8.28689675 7.62298469 10.26209184 7 14 C5.16210388 16.92021272 3.13584301 19.43207849 0 21 C-3.87214182 21.43023798 -5.52496371 21.31669086 -8.8125 19.125 C-11.88447393 16.14079676 -12.2120468 14.3678764 -12.375 10.1875 C-12.32497991 6.34706865 -12.12773299 5.19353484 -9.9375 1.875 C-6.28076837 -0.45908402 -4.2685337 -0.54326793 0 0 Z " fill="#E5E7EB" transform="translate(325,20)"/>
<path d="M0 0 C3.38031589 1.18767855 3.93216817 1.89825225 6 5 C6.71207438 9.88516144 6.72852643 13.8100735 4.125 18.0625 C1.59892619 20.36568494 0.58849559 20.9346116 -2.8125 21.3125 C-6.7307645 20.92835642 -8.21293267 19.70743683 -11 17 C-12.86394552 13.27210896 -12.55445363 9.05962028 -12 5 C-8.6758222 -0.03663303 -5.87450549 -0.74766433 0 0 Z " fill="#E8EAED" transform="translate(522,20)"/>
<path d="M0 0 C2.475 0.495 2.475 0.495 5 1 C5.33 0.67 5.66 0.34 6 0 C10.03160191 -0.26293056 11.55892734 -0.29404844 15 2 C15.66 1.34 16.32 0.68 17 0 C20.43137763 -0.44757099 22.27984988 -0.48784363 25.1796875 1.4765625 C27.84089886 5.16570957 27.44077613 8.32546132 27.25 12.75 C27.23195313 13.54277344 27.21390625 14.33554687 27.1953125 15.15234375 C27.14833082 17.10208348 27.07659044 19.05119878 27 21 C25.68 21 24.36 21 23 21 C22.67 15.72 22.34 10.44 22 5 C20.68 4.67 19.36 4.34 18 4 C15.57520264 7.63719605 15.61337423 9.85703482 15.375 14.1875 C15.30023437 15.45980469 15.22546875 16.73210938 15.1484375 18.04296875 C15.09945312 19.01878906 15.05046875 19.99460937 15 21 C13.68 21 12.36 21 11 21 C10.67 15.39 10.34 9.78 10 4 C6.25724788 4.57125354 6.25724788 4.57125354 5 6 C4.76346477 8.52596259 4.57826308 11.03107207 4.4375 13.5625 C4.39431641 14.27341797 4.35113281 14.98433594 4.30664062 15.71679688 C4.20028223 17.47761912 4.09961154 19.2387832 4 21 C2.68 21 1.36 21 0 21 C0 14.07 0 7.14 0 0 Z " fill="#DADEE3" transform="translate(670,20)"/>
<path d="M0 0 C0.99 0 1.98 0 3 0 C2.67 2.64 2.34 5.28 2 8 C3.423125 7.938125 3.423125 7.938125 4.875 7.875 C8 8 8 8 10 10 C10.37440428 15.52246315 9.74301123 19.7709663 8 25 C7.34 25 6.68 25 6 25 C6.33 20.38 6.66 15.76 7 11 C5.35 11.33 3.7 11.66 2 12 C-0.44837179 16.12357354 -1.04368109 21.33031511 -2 26 C-3.64630328 25.85957123 -5.29204179 25.71250671 -6.9375 25.5625 C-8.31228516 25.44068359 -8.31228516 25.44068359 -9.71484375 25.31640625 C-12 25 -12 25 -13 24 C-12.78633888 19.29945543 -12.03548394 14.58571459 -11 10 C-11.66 10 -12.32 10 -13 10 C-13 9.34 -13 8.68 -13 8 C-12.01 8 -11.02 8 -10 8 C-10 6.68 -10 5.36 -10 4 C-9.01 4 -8.02 4 -7 4 C-7 5.32 -7 6.64 -7 8 C-6.01 8 -5.02 8 -4 8 C-4 8.99 -4 9.98 -4 11 C-3.34 10.67 -2.68 10.34 -2 10 C-1.31068656 7.65092125 -1.31068656 7.65092125 -0.875 4.9375 C-0.62363281 3.55884766 -0.62363281 3.55884766 -0.3671875 2.15234375 C-0.24601562 1.44207031 -0.12484375 0.73179688 0 0 Z " fill="#102344" transform="translate(367,54)"/>
<path d="M0 0 C0 1.32 0 2.64 0 4 C-0.80824219 4.17015625 -1.61648437 4.3403125 -2.44921875 4.515625 C-10.52358994 6.18340867 -10.52358994 6.18340867 -17 11 C-19.54989465 15.28599314 -19.41676435 19.13774923 -19 24 C-18.23903224 26.98045704 -17.75490385 28.39026997 -15.375 30.3125 C-10.48639303 31.72762307 -6.49148232 31.74574116 -2 29.5 C-1.34 29.005 -0.68 28.51 0 28 C0.25 30.3125 0.25 30.3125 0 33 C-2.85938504 35.74187606 -4.95321088 36.43139129 -8.875 36.4375 C-15.06108797 36.22826467 -18.11567902 33.93390838 -22.375 29.5625 C-24.86535921 24.10286634 -24.73756402 18.90051213 -24 13 C-21.34747566 7.28687066 -16.85376534 3.30280591 -11.125 0.6875 C-7.28581837 -0.15711996 -3.92585091 -0.13537417 0 0 Z " fill="#FEFAF4" transform="translate(242,21)"/>
<path d="M0 0 C0.99 0 1.98 0 3 0 C3.99 0 4.98 0 6 0 C5.01 5.61 4.02 11.22 3 17 C2.01 17 1.02 17 0 17 C-0.33 16.34 -0.66 15.68 -1 15 C-1.33 15.66 -1.66 16.32 -2 17 C-9.35678392 17.48241206 -9.35678392 17.48241206 -12 15.5 C-13.42360322 11.94099196 -13.76757709 8.72717719 -13 5 C-9.2804077 -0.57938844 -6.19334419 -0.49946324 0 0 Z " fill="#071B3D" transform="translate(562,62)"/>
<path d="M0 0 C3.21639751 0.65044031 4.23707178 1.73345866 6.10546875 4.42578125 C6.58432375 7.36039849 6.48323617 10.21255999 6.35546875 13.17578125 C6.33742188 13.96855469 6.319375 14.76132812 6.30078125 15.578125 C6.25379957 17.52786473 6.18205919 19.47698003 6.10546875 21.42578125 C5.30109375 21.24015625 4.49671875 21.05453125 3.66796875 20.86328125 C2.82234375 20.71890625 1.97671875 20.57453125 1.10546875 20.42578125 C0.77546875 20.75578125 0.44546875 21.08578125 0.10546875 21.42578125 C-6.10256045 21.88563526 -6.10256045 21.88563526 -8.83203125 20.30078125 C-10.42443408 17.49065861 -10.3477245 15.59813401 -9.89453125 12.42578125 C-8.39453125 10.05078125 -8.39453125 10.05078125 -5.89453125 8.42578125 C-3.13603183 8.09939391 -0.68968213 8.23943786 2.10546875 8.42578125 C1.77546875 7.43578125 1.44546875 6.44578125 1.10546875 5.42578125 C-1.86453125 5.42578125 -4.83453125 5.42578125 -7.89453125 5.42578125 C-6.44410987 -0.37590428 -5.7459927 0.31263375 0 0 Z " fill="#E4E7EA" transform="translate(648.89453125,19.57421875)"/>
<path d="M0 0 C2.33944736 0.28730055 4.6739143 0.61936779 7 1 C7 1.66 7 2.32 7 3 C7.804375 2.2575 7.804375 2.2575 8.625 1.5 C11.66673285 -0.42109443 13.46049143 -0.45185216 17 0 C19.00144441 1.52961878 19.89158854 2.39483868 20.34057617 4.90112305 C20.32486572 5.59761963 20.30915527 6.29411621 20.29296875 7.01171875 C20.28330078 7.76904297 20.27363281 8.52636719 20.26367188 9.30664062 C20.23853516 10.09232422 20.21339844 10.87800781 20.1875 11.6875 C20.16719727 12.88342773 20.16719727 12.88342773 20.14648438 14.10351562 C20.11117089 16.06929967 20.05736447 18.03473582 20 20 C19.01 20 18.02 20 17 20 C16.93941406 19.01257813 16.87882812 18.02515625 16.81640625 17.0078125 C16.69072266 15.08582031 16.69072266 15.08582031 16.5625 13.125 C16.44068359 11.21074219 16.44068359 11.21074219 16.31640625 9.2578125 C16.20793973 6.11699848 16.20793973 6.11699848 15 4 C12.24358584 4.49756092 12.24358584 4.49756092 10 6 C9.76346477 8.52596259 9.57826308 11.03107207 9.4375 13.5625 C9.39431641 14.27341797 9.35113281 14.98433594 9.30664062 15.71679688 C9.20028223 17.47761912 9.09961154 19.2387832 9 21 C7.68 21 6.36 21 5 21 C4.67 15.72 4.34 10.44 4 5 C2.68 4.67 1.36 4.34 0 4 C-2.34770643 7.52155964 -2.37669614 9.50771843 -2.625 13.6875 C-2.69976562 14.86699219 -2.77453125 16.04648437 -2.8515625 17.26171875 C-2.90054687 18.16535156 -2.94953125 19.06898437 -3 20 C-3.99 20 -4.98 20 -6 20 C-6 13.73 -6 7.46 -6 1 C-4.35 1 -2.7 1 -1 1 C-0.67 0.67 -0.34 0.34 0 0 Z " fill="#DDE1E6" transform="translate(342,20)"/>
<path d="M0 0 C3.19544921 0.64620401 4.23713736 1.76684192 6.10546875 4.42578125 C6.39608115 7.32028074 6.4873292 9.8052806 6.35546875 12.67578125 C6.33742188 13.42085937 6.319375 14.1659375 6.30078125 14.93359375 C6.25382524 16.76487826 6.18208527 18.59549774 6.10546875 20.42578125 C5.30109375 20.40515625 4.49671875 20.38453125 3.66796875 20.36328125 C1.1719199 20.12944504 1.1719199 20.12944504 0.10546875 21.42578125 C-3.26953125 21.73828125 -3.26953125 21.73828125 -6.89453125 21.42578125 C-9.26919407 19.35752654 -9.78138772 17.9914989 -10.39453125 14.92578125 C-9.89453125 12.42578125 -9.89453125 12.42578125 -7.83203125 10.11328125 C-4.27217818 8.06825927 -1.93599731 8.10880352 2.10546875 8.42578125 C1.77546875 7.43578125 1.44546875 6.44578125 1.10546875 5.42578125 C-1.86453125 5.42578125 -4.83453125 5.42578125 -7.89453125 5.42578125 C-6.44410987 -0.37590428 -5.7459927 0.31263375 0 0 Z " fill="#E9EBEE" transform="translate(397.89453125,19.57421875)"/>
<path d="M0 0 C2.2109375 1.50390625 2.2109375 1.50390625 4 4 C4.2906124 6.89449949 4.38186045 9.37949935 4.25 12.25 C4.23195313 12.99507812 4.21390625 13.74015625 4.1953125 14.5078125 C4.14835649 16.33909701 4.07661652 18.16971649 4 20 C3.195625 19.979375 2.39125 19.95875 1.5625 19.9375 C-0.93354885 19.70366379 -0.93354885 19.70366379 -2 21 C-5.375 21.3125 -5.375 21.3125 -9 21 C-11.37466282 18.93174529 -11.88685647 17.56571765 -12.5 14.5 C-12 12 -12 12 -9.9375 9.6875 C-6.37764693 7.64247802 -4.04146606 7.68302227 0 8 C-0.33 7.01 -0.66 6.02 -1 5 C-3.97 5 -6.94 5 -10 5 C-9.67 3.68 -9.34 2.36 -9 1 C-5.90826248 -0.54586876 -3.40570448 -0.29359521 0 0 Z " fill="#E2E4E8" transform="translate(579,20)"/>
<path d="M0 0 C4.40093281 0.86446895 5.89836569 2.06097945 8.5 5.6875 C8.5 7.6675 8.5 9.6475 8.5 11.6875 C4.21 11.6875 -0.08 11.6875 -4.5 11.6875 C-3.51 13.3375 -2.52 14.9875 -1.5 16.6875 C0.77331799 17.28919446 0.77331799 17.28919446 3.1875 17 C3.99574219 16.95488281 4.80398438 16.90976562 5.63671875 16.86328125 C6.25160156 16.80527344 6.86648438 16.74726562 7.5 16.6875 C7.5 18.0075 7.5 19.3275 7.5 20.6875 C3.86217368 21.90010877 1.32264001 22.08294552 -2.5 21.6875 C-6.61598872 18.2873354 -8.34447949 16.24270511 -8.875 10.9375 C-8.82253609 7.74303082 -8.32250937 5.7832506 -6.4375 3.1875 C-3.5 0.6875 -3.5 0.6875 0 0 Z " fill="#DFE2E7" transform="translate(595.5,19.3125)"/>
<path d="M0 0 C3.6875 0.4375 3.6875 0.4375 6.625 2.5625 C8.6875 5.4375 8.6875 5.4375 8.6875 11.4375 C4.3975 11.4375 0.1075 11.4375 -4.3125 11.4375 C-3.6525 13.0875 -2.9925 14.7375 -2.3125 16.4375 C0.9875 16.4375 4.2875 16.4375 7.6875 16.4375 C7.6875 17.7575 7.6875 19.0775 7.6875 20.4375 C3.98673948 21.67108684 0.53496075 22.01151632 -3.3125 21.4375 C-6.28108157 19.23009319 -7.14115791 17.95152627 -8.3125 14.4375 C-8.68538316 9.40357729 -8.34302983 6.51705939 -5.3125 2.4375 C-3.3125 0.4375 -3.3125 0.4375 0 0 Z " fill="#DDE0E5" transform="translate(450.3125,19.5625)"/>
<path d="M0 0 C3.9375 0.5 3.9375 0.5 5.9375 1.5 C7.56243321 4.74986643 7.45757869 7.98946884 6.9375 11.5 C4.79861111 16.06944444 4.79861111 16.06944444 1.9375 17.5 C0.0625 17.703125 0.0625 17.703125 -2.0625 17.75 C-2.76375 17.77578125 -3.465 17.8015625 -4.1875 17.828125 C-4.80625 17.71984375 -5.425 17.6115625 -6.0625 17.5 C-8.76032894 13.45325659 -8.71123038 10.24903908 -8.0625 5.5 C-6.06325775 1.41821373 -4.42974954 0.20394795 0 0 Z " fill="#D7DBE0" transform="translate(410.0625,61.5)"/>
<path d="M0 0 C3.375 0.5625 3.375 0.5625 5.3125 1.5625 C7.02703531 4.78986059 6.90388021 8.03892147 6.375 11.5625 C5.21867254 13.92543002 4.22516245 15.71233755 2.375 17.5625 C-4.87646199 18.14729532 -4.87646199 18.14729532 -7.625 16 C-9.04082279 12.54893194 -9.13601745 10.26737648 -8.625 6.5625 C-6.63695948 2.52456881 -4.55348791 0.70657571 0 0 Z " fill="#0B1E40" transform="translate(506.625,61.4375)"/>
<path d="M0 0 C1.67542976 0.28604898 3.34385343 0.61781233 5 1 C4.6875 2.9375 4.6875 2.9375 4 5 C3.01 5.33 2.02 5.66 1 6 C0.34 14.25 -0.32 22.5 -1 31 C-11.125 27.625 -11.125 27.625 -15 26 C-13.40103806 22.3353521 -11.11916577 19.55624414 -8.5625 16.5 C-7.03707016 14.67048942 -5.51588038 12.83743076 -4 11 C-3.41347656 10.29230469 -2.82695312 9.58460937 -2.22265625 8.85546875 C-0.49777593 6.23783887 -0.86381953 4.06406047 -1 1 C-0.67 0.67 -0.34 0.34 0 0 Z " fill="#FEFBF7" transform="translate(154,31)"/>
<path d="M0 0 C1.32 0 2.64 0 4 0 C4.33 3.3 4.66 6.6 5 10 C5.33 9.67 5.66 9.34 6 9 C9.09432643 8.72494876 11.32388695 8.69883336 14.18359375 9.97265625 C17.0674401 13.19140089 16.42735007 16.53000502 16.25 20.6875 C16.23195313 21.48478516 16.21390625 22.28207031 16.1953125 23.10351562 C16.14822247 25.06952449 16.07647899 27.03491494 16 29 C15.01 29 14.02 29 13 29 C12.93941406 28.02417969 12.87882812 27.04835938 12.81640625 26.04296875 C12.69072266 24.13451172 12.69072266 24.13451172 12.5625 22.1875 C12.48128906 20.92292969 12.40007812 19.65835937 12.31640625 18.35546875 C12.12815453 15.00818107 12.12815453 15.00818107 11 12 C7.75016865 13.08784968 7.75016865 13.08784968 5 15 C4.76346477 17.52596259 4.57826308 20.03107207 4.4375 22.5625 C4.39431641 23.27341797 4.35113281 23.98433594 4.30664062 24.71679688 C4.20028223 26.47761912 4.09961154 28.2387832 4 30 C2.68 30 1.36 30 0 30 C0 20.1 0 10.2 0 0 Z " fill="#E3E6E9" transform="translate(489,11)"/>
<path d="M0 0 C2.23560002 2.23560002 2.62379524 3.51030684 3.5078125 6.5 C3.77207031 7.386875 4.03632813 8.27375 4.30859375 9.1875 C4.57800781 10.115625 4.84742188 11.04375 5.125 12 C5.40214844 12.928125 5.67929688 13.85625 5.96484375 14.8125 C8 21.70997537 8 21.70997537 8 24 C2.72 24 -2.56 24 -8 24 C-7.32020672 19.92124031 -6.83062183 17.13865115 -5.37109375 13.4765625 C-4.90219727 12.28740234 -4.90219727 12.28740234 -4.42382812 11.07421875 C-3.9355957 9.86185547 -3.9355957 9.86185547 -3.4375 8.625 C-2.9434668 7.37783203 -2.9434668 7.37783203 -2.43945312 6.10546875 C-1.63155238 4.06815382 -0.8182989 2.03315558 0 0 Z " fill="#FEF9F2" transform="translate(129,33)"/>
<path d="M0 0 C0.99 0 1.98 0 3 0 C3 3.3 3 6.6 3 10 C3.99 9.34 4.98 8.68 6 8 C9.4501392 7.5595567 11.26484956 7.50110078 14.17578125 9.4765625 C16.8423153 13.16517277 16.44087211 16.32323539 16.25 20.75 C16.23195313 21.54277344 16.21390625 22.33554687 16.1953125 23.15234375 C16.14833082 25.10208348 16.07659044 27.05119878 16 29 C14.68 29 13.36 29 12 29 C11.67 23.72 11.34 18.44 11 13 C7.26847757 11.56726565 7.26847757 11.56726565 5.29296875 13.01953125 C3.43254948 15.86917647 3.4794658 18.31479092 3.3125 21.6875 C3.21388672 23.45673828 3.21388672 23.45673828 3.11328125 25.26171875 C3.05720703 26.61716797 3.05720703 26.61716797 3 28 C2.01 28 1.02 28 0 28 C0 18.76 0 9.52 0 0 Z " fill="#FBFBFB" transform="translate(368,12)"/>
<path d="M0 0 C2.475 0.495 2.475 0.495 5 1 C5.66 0.67 6.32 0.34 7 0 C10.41264635 -0.37093982 12.29531386 -0.47610515 15.1796875 1.47265625 C17.83915544 5.1650935 17.44085758 8.32357229 17.25 12.75 C17.23195313 13.54277344 17.21390625 14.33554687 17.1953125 15.15234375 C17.14833082 17.10208348 17.07659044 19.05119878 17 21 C15.68 21 14.36 21 13 21 C12.67 15.72 12.34 10.44 12 5 C10.35 4.67 8.7 4.34 7 4 C4.57520264 7.63719605 4.61337423 9.85703482 4.375 14.1875 C4.26285156 16.09595703 4.26285156 16.09595703 4.1484375 18.04296875 C4.09945312 19.01878906 4.05046875 19.99460937 4 21 C2.68 21 1.36 21 0 21 C0 14.07 0 7.14 0 0 Z " fill="#DDE0E5" transform="translate(618,20)"/>
<path d="M0 0 C0.99 0.33 1.98 0.66 3 1 C2.67 1.99 2.34 2.98 2 4 C4.31 4 6.62 4 9 4 C9.66 7.96 10.32 11.92 11 16 C12.98 12.04 14.96 8.08 17 4 C17.66 4 18.32 4 19 4 C18.10804539 9.39194842 15.85676449 13.5035791 13.25 18.25 C12.81945312 19.07757813 12.38890625 19.90515625 11.9453125 20.7578125 C11.51476562 21.54414062 11.08421875 22.33046875 10.640625 23.140625 C10.25422852 23.85766602 9.86783203 24.57470703 9.46972656 25.31347656 C7.51297492 27.55886532 5.89523313 27.67911469 3 28 C3 27.34 3 26.68 3 26 C3.99 25.67 4.98 25.34 6 25 C7.28365387 22.43269226 7.13275635 20.55347003 7.125 17.6875 C7.12757813 16.74261719 7.13015625 15.79773438 7.1328125 14.82421875 C7.005363 12.11404264 6.60596226 9.64026415 6 7 C4.35 6.67 2.7 6.34 1 6 C1.020625 7.216875 1.04125 8.43375 1.0625 9.6875 C1.06824116 12.91977322 0.78766315 15.84934741 0 19 C0.99 19 1.98 19 3 19 C3 19.66 3 20.32 3 21 C1.33388095 21.042721 -0.33382885 21.04063832 -2 21 C-3 20 -3 20 -3.1875 16.875 C-2.99165552 12.82754737 -2.24854964 9.82368327 -1 6 C-1.99 6 -2.98 6 -4 6 C-4 5.34 -4 4.68 -4 4 C-2.68 4 -1.36 4 0 4 C0 2.68 0 1.36 0 0 Z " fill="#E4E8EB" transform="translate(457,58)"/>
<path d="M0 0 C3.68578694 3.68578694 6.72115518 7.0605803 9.8125 11.1875 C10.99779297 12.75564453 10.99779297 12.75564453 12.20703125 14.35546875 C14 17 14 17 14 19 C13.40832031 19.12117188 12.81664063 19.24234375 12.20703125 19.3671875 C11.41683594 19.53476562 10.62664062 19.70234375 9.8125 19.875 C8.64654297 20.11863281 8.64654297 20.11863281 7.45703125 20.3671875 C4.52346075 21.06680485 4.52346075 21.06680485 0 23 C0 15.41 0 7.82 0 0 Z " fill="#FEFCF9" transform="translate(105,38)"/>
<path d="M0 0 C4.33333333 0 8.66666667 0 13 0 C14.010625 -0.04125 15.02125 -0.0825 16.0625 -0.125 C19 0 19 0 21 2 C21.71869817 7.28454538 21.0230476 12.06882148 19 17 C18.34 17 17.68 17 17 17 C16.90961901 11.84828377 17.15318867 7.08086796 18 2 C15.50995496 2.56076801 15.50995496 2.56076801 13 4 C11.061452 8.1678782 10.54476714 12.46027386 10 17 C9.01 17 8.02 17 7 17 C7.33 12.38 7.66 7.76 8 3 C3.79819816 3.5739739 3.79819816 3.5739739 2 7 C1.56261304 8.71444889 1.19151312 10.44667784 0.875 12.1875 C0.70742188 13.08855469 0.53984375 13.98960938 0.3671875 14.91796875 C0.24601562 15.60503906 0.12484375 16.29210937 0 17 C-0.66 17 -1.32 17 -2 17 C-2.25706972 11.08739655 -1.2982126 5.76081841 0 0 Z " fill="#DADDE2" transform="translate(299,62)"/>
<path d="M0 0 C0.99 0 1.98 0 3 0 C3 1.65 3 3.3 3 5 C4.65 5 6.3 5 8 5 C8 6.32 8 7.64 8 9 C6.35 9 4.7 9 3 9 C3 13.29 3 17.58 3 22 C4.65 22 6.3 22 8 22 C8 23.32 8 24.64 8 26 C2.57446809 26.36170213 2.57446809 26.36170213 0.3125 24.9375 C-1.70439276 21.96018212 -1.28491047 19.35174705 -1.1875 15.8125 C-1.16042969 14.54019531 -1.13335938 13.26789062 -1.10546875 11.95703125 C-1.07066406 10.98121094 -1.03585937 10.00539063 -1 9 C-2.32 9 -3.64 9 -5 9 C-5 7.68 -5 6.36 -5 5 C-3.68 5 -2.36 5 -1 5 C-0.67 3.35 -0.34 1.7 0 0 Z " fill="#D9DCE1" transform="translate(557,15)"/>
<path d="M0 0 C3.66928522 0.28778708 4.7454992 0.52441201 7.1875 3.25 C7.68930606 6.15746661 7.5628814 8.99827074 7.4375 11.9375 C7.41945313 12.73478516 7.40140625 13.53207031 7.3828125 14.35351562 C7.33572247 16.31952449 7.26397899 18.28491494 7.1875 20.25 C6.1975 20.25 5.2075 20.25 4.1875 20.25 C4.13851562 19.26257813 4.08953125 18.27515625 4.0390625 17.2578125 C3.92691406 15.33582031 3.92691406 15.33582031 3.8125 13.375 C3.74289062 12.09882813 3.67328125 10.82265625 3.6015625 9.5078125 C3.51508894 6.16938301 3.51508894 6.16938301 1.1875 4.25 C-1.74703261 4.61681658 -2.67687246 5.11437246 -4.8125 7.25 C-5.27736718 10.37196336 -5.27736718 10.37196336 -5.4375 13.875 C-5.51226563 15.06351563 -5.58703125 16.25203125 -5.6640625 17.4765625 C-5.71304688 18.39179687 -5.76203125 19.30703125 -5.8125 20.25 C-6.8025 20.25 -7.7925 20.25 -8.8125 20.25 C-8.8125 13.98 -8.8125 7.71 -8.8125 1.25 C-7.1625 1.25 -5.5125 1.25 -3.8125 1.25 C-2.8125 0.25 -2.8125 0.25 0 0 Z " fill="#EFF1F3" transform="translate(541.8125,19.75)"/>
<path d="M0 0 C3.375 -0.125 3.375 -0.125 7 0 C9 2 9 2 9.265625 4.20703125 C9.21379833 12.84912813 9.21379833 12.84912813 7 17 C3.7 17 0.4 17 -3 17 C-4.31690141 10.65492958 -4.31690141 10.65492958 -3.0625 8.0625 C0.25508697 6.35344005 3.30441203 6.81824977 7 7 C6.67 5.68 6.34 4.36 6 3 C3.69 3 1.38 3 -1 3 C-0.67 2.01 -0.34 1.02 0 0 Z " fill="#D9DCE1" transform="translate(341,62)"/>
<path d="M0 0 C3.3125 0.5 3.3125 0.5 5.3125 2.5 C5.4375 6.125 5.4375 6.125 5.3125 9.5 C1.6825 9.5 -1.9475 9.5 -5.6875 9.5 C-5.3575 11.15 -5.0275 12.8 -4.6875 14.5 C-2.0475 14.83 0.5925 15.16 3.3125 15.5 C2.9825 16.16 2.6525 16.82 2.3125 17.5 C-4.97108209 17.85820896 -4.97108209 17.85820896 -7.6875 16.5 C-9.34164331 13.19171338 -9.38920726 10.04863383 -8.6875 6.5 C-6.73402537 2.37599801 -4.62242514 0.62676951 0 0 Z " fill="#E2E4E9" transform="translate(330.6875,61.5)"/>
<path d="M0 0 C0.33 1.32 0.66 2.64 1 4 C0.05125 3.95875 -0.8975 3.9175 -1.875 3.875 C-5.10244856 3.65026182 -5.10244856 3.65026182 -7 6 C-7.28042984 8.17537684 -7.28042984 8.17537684 -7.1875 10.5625 C-7.18105469 11.36816406 -7.17460937 12.17382812 -7.16796875 13.00390625 C-7.21630912 14.99879885 -7.21630912 14.99879885 -6 16 C-3.67182036 16.36760731 -1.3381615 16.70241581 1 17 C1 18.32 1 19.64 1 21 C-6.08393552 21.72040022 -6.08393552 21.72040022 -8.609375 19.734375 C-12.20148639 15.3815812 -13.43900174 12.59727217 -13 7 C-9.94995719 0.60943411 -6.86275645 -0.25897194 0 0 Z " fill="#DCE0E5" transform="translate(309,20)"/>
<path d="M0 0 C3.11029337 1.16636001 4.07496539 1.92909361 5.5 4.9375 C5.17272727 11.26477273 5.17272727 11.26477273 2.5 13.9375 C-0.5 14.25 -0.5 14.25 -3.5 13.9375 C-6.03686376 10.13220436 -6.09355135 7.39840938 -5.5 2.9375 C-3.89095143 0.14283669 -3.21407698 -0.08035192 0 0 Z " fill="#0D2142" transform="translate(519.5,23.0625)"/>
<path d="M0 0 C3.11029337 1.16636001 4.07496539 1.92909361 5.5 4.9375 C5.17272727 11.26477273 5.17272727 11.26477273 2.5 13.9375 C-0.5 14.25 -0.5 14.25 -3.5 13.9375 C-6.03686376 10.13220436 -6.09355135 7.39840938 -5.5 2.9375 C-3.89095143 0.14283669 -3.21407698 -0.08035192 0 0 Z " fill="#0D2142" transform="translate(322.5,23.0625)"/>
<path d="M0 0 C0 1.32 0 2.64 0 4 C-0.94875 3.95875 -1.8975 3.9175 -2.875 3.875 C-6.10244856 3.65026182 -6.10244856 3.65026182 -8 6 C-8.28042984 8.17537684 -8.28042984 8.17537684 -8.1875 10.5625 C-8.18105469 11.36816406 -8.17460937 12.17382812 -8.16796875 13.00390625 C-8.21630912 14.99879885 -8.21630912 14.99879885 -7 16 C-4.67182036 16.36760731 -2.3381615 16.70241581 0 17 C0 18.32 0 19.64 0 21 C-4.13998349 21.32470459 -6.33999001 21.4304413 -9.875 19.125 C-12.87388696 16.12611304 -13.21340819 14.33295137 -13.375 10.1875 C-13.32005518 6.39081278 -13.11495655 5.17961961 -11 1.875 C-6.97259374 -0.64212891 -4.67942502 -0.39656144 0 0 Z " fill="#E3E6EA" transform="translate(485,20)"/>
<path d="M0 0 C0.99 0 1.98 0 3 0 C2.67 2.64 2.34 5.28 2 8 C2.94875 7.95875 3.8975 7.9175 4.875 7.875 C8 8 8 8 10 10 C10.37440428 15.52246315 9.74301123 19.7709663 8 25 C7.34 25 6.68 25 6 25 C6.33 20.38 6.66 15.76 7 11 C5.35 11.33 3.7 11.66 2 12 C-0.18622172 15.71657692 -0.50191245 19.7662558 -1 24 C-1.99 24.33 -2.98 24.66 -4 25 C-3.55046968 16.39691968 -2.13898002 8.34067679 0 0 Z " fill="#D1D6DC" transform="translate(367,54)"/>
<path d="M0 0 C2.2109375 1.50390625 2.2109375 1.50390625 4 4 C4.2906124 6.89449949 4.38186045 9.37949935 4.25 12.25 C4.23195313 12.99507812 4.21390625 13.74015625 4.1953125 14.5078125 C4.14835649 16.33909701 4.07661652 18.16971649 4 20 C2.02 20 0.04 20 -2 20 C-1.34 17.03 -0.68 14.06 0 11 C-0.99 10.67 -1.98 10.34 -3 10 C-2.01 9.67 -1.02 9.34 0 9 C-0.33 7.68 -0.66 6.36 -1 5 C-3.97 5 -6.94 5 -10 5 C-9.67 3.68 -9.34 2.36 -9 1 C-5.90826248 -0.54586876 -3.40570448 -0.29359521 0 0 Z " fill="#EFF0F2" transform="translate(579,20)"/>
<path d="M0 0 C2.475 0.495 2.475 0.495 5 1 C5.33 0.67 5.66 0.34 6 0 C7.66617115 -0.04063832 9.33388095 -0.042721 11 0 C11 1.32 11 2.64 11 4 C10.195625 4.12375 9.39125 4.2475 8.5625 4.375 C7.2940625 4.684375 7.2940625 4.684375 6 5 C4.5192152 7.9615696 4.64685963 10.83506295 4.4375 14.125 C4.35371094 15.40632813 4.26992188 16.68765625 4.18359375 18.0078125 C4.09271484 19.48894531 4.09271484 19.48894531 4 21 C2.68 21 1.36 21 0 21 C0 14.07 0 7.14 0 0 Z " fill="#DBDEE3" transform="translate(419,20)"/>
<path d="M0 0 C0.99 0 1.98 0 3 0 C2.34 4.95 1.68 9.9 1 15 C2.98 14.34 4.96 13.68 7 13 C8.37671439 9.9380242 8.37671439 9.9380242 8.875 6.375 C9.09929687 5.18648438 9.32359375 3.99796875 9.5546875 2.7734375 C9.70164062 1.85820313 9.84859375 0.94296875 10 0 C10.99 0 11.98 0 13 0 C12.34 5.28 11.68 10.56 11 16 C7.0332173 16.79335654 3.97786955 17.2651913 0 17 C-2 15 -2 15 -2.25 11.3125 C-2.1609339 7.25257007 -1.28029578 3.84088735 0 0 Z " fill="#C1C8D1" transform="translate(421,62)"/>
<path d="M0 0 C0.99 0 1.98 0 3 0 C2.67 4.62 2.34 9.24 2 14 C3.65 13.67 5.3 13.34 7 13 C9.18622172 9.28342308 9.50191245 5.2337442 10 1 C10.99 0.67 11.98 0.34 13 0 C12.85786703 1.89611434 12.71113093 3.79188394 12.5625 5.6875 C12.48128906 6.74324219 12.40007813 7.79898438 12.31640625 8.88671875 C12.03548319 11.65086297 11.59843148 14.28945741 11 17 C9.18757948 17.02687279 7.37504767 17.04633715 5.5625 17.0625 C4.55316406 17.07410156 3.54382813 17.08570312 2.50390625 17.09765625 C0 17 0 17 -1 16 C-1.34568689 10.60118412 -1.11582647 5.30017571 0 0 Z " fill="#CDD2D9" transform="translate(517,62)"/>
<path d="M0 0 C3.375 0.5625 3.375 0.5625 5.3125 1.5625 C7.02703531 4.78986059 6.90388021 8.03892147 6.375 11.5625 C5.21867254 13.92543002 4.22516245 15.71233755 2.375 17.5625 C-4.87646199 18.14729532 -4.87646199 18.14729532 -7.625 16 C-9.04082279 12.54893194 -9.13601745 10.26737648 -8.625 6.5625 C-6.63695948 2.52456881 -4.55348791 0.70657571 0 0 Z M-4.26953125 3.79296875 C-6.00926468 6.06414813 -5.96715883 7.35822396 -5.875 10.1875 C-5.85953125 10.98414062 -5.8440625 11.78078125 -5.828125 12.6015625 C-5.83304981 14.56461257 -5.83304981 14.56461257 -4.625 15.5625 C-1.94968265 15.84411235 -0.23845325 15.91304471 2.125 14.5625 C4.15852806 11.3088551 4.19299133 8.38468204 4.375 4.5625 C2.55296419 2.33283253 2.55296419 2.33283253 -0.0625 2.25 C-2.62030819 2.34618357 -2.62030819 2.34618357 -4.26953125 3.79296875 Z " fill="#DBDEE3" transform="translate(506.625,61.4375)"/>
<path d="M0 0 C1 1 1 1 1.25 4.8125 C1.20527933 7.58021273 1.02245863 8.95271868 -0.1875 11.5 C-2 13 -2 13 -4.5625 13.375 C-7 13 -7 13 -9 11 C-8.67010309 4.07216495 -8.67010309 4.07216495 -6.75 1 C-4.38654675 -0.35054471 -2.67531735 -0.28161235 0 0 Z " fill="#091D3F" transform="translate(413,64)"/>
<path d="M0 0 C1.62490954 -0.02698189 3.24994633 -0.04638757 4.875 -0.0625 C5.77992188 -0.07410156 6.68484375 -0.08570313 7.6171875 -0.09765625 C10 0 10 0 12 1 C12.09688221 6.44693314 12.12862175 11.63904667 11 17 C10.01 17 9.02 17 8 17 C8.33 12.38 8.66 7.76 9 3 C7.35 3.33 5.7 3.66 4 4 C2.41744803 8.32564205 1.54855348 12.428721 1 17 C0.01 17 -0.98 17 -2 17 C-1.03644647 5.47835991 -1.03644647 5.47835991 0 0 Z " fill="#DEE2E6" transform="translate(534,62)"/>
<path d="M0 0 C1.62463842 -0.05395478 3.24978541 -0.09277195 4.875 -0.125 C5.77992188 -0.14820313 6.68484375 -0.17140625 7.6171875 -0.1953125 C10 0 10 0 12 2 C12.01171875 4.96875 12.01171875 4.96875 11.6875 8.5 C11.58824219 9.6653125 11.48898437 10.830625 11.38671875 12.03125 C11 15 11 15 10 17 C9.34 17 8.68 17 8 17 C8.33 12.05 8.66 7.1 9 2 C4.15355263 3.36883582 4.15355263 3.36883582 2.890625 5.76953125 C2.67921875 6.44371094 2.4678125 7.11789063 2.25 7.8125 C1.90775391 8.87404297 1.90775391 8.87404297 1.55859375 9.95703125 C0.92058373 12.29045252 0.37357433 14.60912431 0 17 C-0.66 17 -1.32 17 -2 17 C-1.85899143 14.72886197 -1.71203245 12.45809275 -1.5625 10.1875 C-1.48128906 8.92292969 -1.40007812 7.65835938 -1.31640625 6.35546875 C-1 3 -1 3 0 0 Z " fill="#D0D5DB" transform="translate(438,62)"/>
<path d="M0 0 C3.36681065 -0.3060737 5.33288499 -0.44792008 8.1875 1.46875 C10.83457682 5.1655297 10.44074738 8.32612798 10.25 12.75 C10.23195313 13.54277344 10.21390625 14.33554687 10.1953125 15.15234375 C10.14833082 17.10208348 10.07659044 19.05119878 10 21 C8.68 21 7.36 21 6 21 C5.67 15.72 5.34 10.44 5 5 C3.35 4.67 1.7 4.34 0 4 C0 2.68 0 1.36 0 0 Z " fill="#DCE0E6" transform="translate(374,20)"/>
<path d="M0 0 C0.99 0 1.98 0 3 0 C3 9.9 3 19.8 3 30 C2.01 30 1.02 30 0 30 C0 20.1 0 10.2 0 0 Z " fill="#FAFBFC" transform="translate(434,11)"/>
<path d="M0 0 C1.32 0 2.64 0 4 0 C4 6.93 4 13.86 4 21 C2.68 21 1.36 21 0 21 C0 14.07 0 7.14 0 0 Z " fill="#D4D8DD" transform="translate(702,20)"/>
<path d="M0 0 C1.32 0 2.64 0 4 0 C4 6.93 4 13.86 4 21 C2.68 21 1.36 21 0 21 C0 14.07 0 7.14 0 0 Z " fill="#D6DBE0" transform="translate(410,20)"/>
<path d="M0 0 C0 1.32 0 2.64 0 4 C-1.98 4.33 -3.96 4.66 -6 5 C-6.33 7.64 -6.66 10.28 -7 13 C-8.32 13.33 -9.64 13.66 -11 14 C-11.90381779 9.49073517 -12.55935521 6.19166979 -10.5625 1.9375 C-6.88127229 -0.84586729 -4.5374216 -0.37811847 0 0 Z " fill="#FEF7ED" transform="translate(242,32)"/>
<path d="M0 0 C3.06213444 -0.20878189 5.35481671 -0.28572403 8.1875 0.96875 C11.06414721 4.19257877 10.42734711 7.53007451 10.25 11.6875 C10.23195313 12.48478516 10.21390625 13.28207031 10.1953125 14.10351562 C10.14822247 16.06952449 10.07647899 18.03491494 10 20 C9.01 20 8.02 20 7 20 C6.93941406 19.02417969 6.87882812 18.04835938 6.81640625 17.04296875 C6.73261719 15.77066406 6.64882813 14.49835937 6.5625 13.1875 C6.48128906 11.92292969 6.40007812 10.65835937 6.31640625 9.35546875 C6.12815453 6.00818107 6.12815453 6.00818107 5 3 C3.35 3.33 1.7 3.66 0 4 C0 2.68 0 1.36 0 0 Z " fill="#EFF1F3" transform="translate(495,20)"/>
<path d="M0 0 C1.21236328 0.04060547 1.21236328 0.04060547 2.44921875 0.08203125 C3.06410156 0.11683594 3.67898438 0.15164062 4.3125 0.1875 C1.99393083 1.73321278 -0.19388429 2.98368552 -2.6875 4.1875 C-2.3575 5.5075 -2.0275 6.8275 -1.6875 8.1875 C0.6225 8.5175 2.9325 8.8475 5.3125 9.1875 C4.25 10.6875 4.25 10.6875 2.3125 12.1875 C-1.1875 12.625 -1.1875 12.625 -4.6875 12.1875 C-7.10811048 10.07922636 -7.6002007 8.78404522 -8.0625 5.625 C-7.31288092 0.75247596 -4.59476891 -0.19977256 0 0 Z " fill="#E8EAED" transform="translate(395.6875,28.8125)"/>
<path d="M0 0 C0.99 0 1.98 0 3 0 C3 1.32 3 2.64 3 4 C3.99 4 4.98 4 6 4 C6 4.66 6 5.32 6 6 C4.68 6 3.36 6 2 6 C1.34 10.29 0.68 14.58 0 19 C0.99 19 1.98 19 3 19 C3 19.66 3 20.32 3 21 C1.33388095 21.042721 -0.33382885 21.04063832 -2 21 C-2.33 20.67 -2.66 20.34 -3 20 C-2.78633888 15.29945543 -2.03548394 10.58571459 -1 6 C-1.66 6 -2.32 6 -3 6 C-3 5.34 -3 4.68 -3 4 C-2.01 4 -1.02 4 0 4 C0 2.68 0 1.36 0 0 Z " fill="#CCD2D9" transform="translate(357,58)"/>
<path d="M0 0 C0 0.66 0 1.32 0 2 C-1.11375 2.12375 -2.2275 2.2475 -3.375 2.375 C-7.03103677 2.6465813 -7.03103677 2.6465813 -9 5 C-9.24212873 6.98128508 -9.24212873 6.98128508 -9.125 9.125 C-9.063125 11.043125 -9.063125 11.043125 -9 13 C-7.02 13.66 -5.04 14.32 -3 15 C-3 15.66 -3 16.32 -3 17 C-9.3782235 17.48137536 -9.3782235 17.48137536 -11.9375 15.5 C-13.44559582 11.95153924 -13.77096209 8.74361399 -13 5 C-9.30474011 -0.54288984 -6.16029988 -0.52205931 0 0 Z " fill="#DCDFE4" transform="translate(562,62)"/>
<path d="M0 0 C0 0.66 0 1.32 0 2 C-1.11375 2.12375 -2.2275 2.2475 -3.375 2.375 C-7.03103677 2.6465813 -7.03103677 2.6465813 -9 5 C-9.24212873 6.98128508 -9.24212873 6.98128508 -9.125 9.125 C-9.063125 11.043125 -9.063125 11.043125 -9 13 C-6.69 13.66 -4.38 14.32 -2 15 C-2 15.66 -2 16.32 -2 17 C-7.21925134 17.42780749 -7.21925134 17.42780749 -10 17 C-12.66838432 14.24822867 -12.96041689 12.27708174 -13.5 8.5 C-13 5 -13 5 -11 2.0625 C-6.96968211 -0.70834355 -4.80160858 -0.40691598 0 0 Z " fill="#DEE1E5" transform="translate(401,62)"/>
<path d="M0 0 C2.31 0 4.62 0 7 0 C5.125 4.875 5.125 4.875 4 6 C3.76518307 8.18292774 3.58636677 10.37203174 3.4375 12.5625 C3.31181641 14.35880859 3.31181641 14.35880859 3.18359375 16.19140625 C3.12300781 17.11824219 3.06242188 18.04507813 3 19 C2.01 19 1.02 19 0 19 C0 12.73 0 6.46 0 0 Z " fill="#F9F9F9" transform="translate(533,21)"/>
<path d="M0 0 C3.0625 0.1875 3.0625 0.1875 5.0625 2.1875 C5.20767744 5.0968558 5.24880796 7.907446 5.1875 10.8125 C5.17847656 11.61429688 5.16945313 12.41609375 5.16015625 13.2421875 C5.13656223 15.22408523 5.10069065 17.20582981 5.0625 19.1875 C4.0725 19.1875 3.0825 19.1875 2.0625 19.1875 C2.00191406 18.20007813 1.94132812 17.21265625 1.87890625 16.1953125 C1.79511719 14.91398437 1.71132813 13.63265625 1.625 12.3125 C1.50318359 10.39824219 1.50318359 10.39824219 1.37890625 8.4453125 C1.27043973 5.30449848 1.27043973 5.30449848 0.0625 3.1875 C-1.95419827 2.05399466 -1.95419827 2.05399466 -3.9375 1.1875 C-2.9375 0.1875 -2.9375 0.1875 0 0 Z " fill="#F9F9FA" transform="translate(356.9375,20.8125)"/>
<path d="M0 0 C2.31 0 4.62 0 7 0 C6.2884375 1.0828125 6.2884375 1.0828125 5.5625 2.1875 C2.93149883 7.31298813 3.24258815 13.36191673 3 19 C2.01 19 1.02 19 0 19 C0 12.73 0 6.46 0 0 Z " fill="#FCFCFC" transform="translate(336,21)"/>
<path d="M0 0 C0 0.66 0 1.32 0 2 C-3.02734375 2.24414062 -3.02734375 2.24414062 -6.0546875 2.48828125 C-8.39519216 2.87393036 -8.39519216 2.87393036 -10 6 C-10.28662433 10.14776273 -10.28662433 10.14776273 -9 14 C-5.97065509 14.65772428 -5.97065509 14.65772428 -3 15 C-3 15.66 -3 16.32 -3 17 C-9.48071688 17.36683303 -9.48071688 17.36683303 -11.703125 15.796875 C-14.21735599 12.31330194 -13.57578725 8.09076753 -13 4 C-10.11430253 -1.26953452 -5.34828833 -0.41140679 0 0 Z " fill="#ECEDEF" transform="translate(498,62)"/>
<path d="M0 0 C0.66 0 1.32 0 2 0 C1.10804539 5.39194842 -1.14323551 9.5035791 -3.75 14.25 C-4.18054688 15.07757813 -4.61109375 15.90515625 -5.0546875 16.7578125 C-5.48523438 17.54414062 -5.91578125 18.33046875 -6.359375 19.140625 C-6.74577148 19.85766602 -7.13216797 20.57470703 -7.53027344 21.31347656 C-9.48702508 23.55886532 -11.10476687 23.67911469 -14 24 C-14 23.34 -14 22.68 -14 22 C-13.01 21.67 -12.02 21.34 -11 21 C-8.86539589 18.21974527 -8.86539589 18.21974527 -8.5 15.375 C-8.2525 14.199375 -8.2525 14.199375 -8 13 C-7.34 12.67 -6.68 12.34 -6 12 C-4.89855315 10.01111799 -3.86581405 7.9837464 -2.875 5.9375 C-2.33617187 4.83277344 -1.79734375 3.72804688 -1.2421875 2.58984375 C-0.62730469 1.30787109 -0.62730469 1.30787109 0 0 Z " fill="#E9EAED" transform="translate(474,62)"/>
<path d="M0 0 C0.99 0 1.98 0 3 0 C2.42046773 4.92602432 1.76550501 9.84003586 1.0625 14.75 C0.90910156 15.83796875 0.75570312 16.9259375 0.59765625 18.046875 C0.05609759 20.72281192 -0.63980339 22.65522593 -2 25 C-2.66 25 -3.32 25 -4 25 C-2.68 16.75 -1.36 8.5 0 0 Z " fill="#CAD0D8" transform="translate(573,54)"/>
<path d="M0 0 C-0.598125 0.28875 -1.19625 0.5775 -1.8125 0.875 C-4.19327792 2.04742026 -4.19327792 2.04742026 -7 4 C-7 4.99 -7 5.98 -7 7 C-5.35 7 -3.7 7 -2 7 C-1.01 4.69 -0.02 2.38 1 0 C1.33 0 1.66 0 2 0 C2.125 7.75 2.125 7.75 1 10 C-2.3 10 -5.6 10 -9 10 C-10.32296047 3.62573591 -10.32296047 3.62573591 -9 1.0625 C-6.00926074 -0.52633023 -3.31998061 -0.18792343 0 0 Z " fill="#E6E8EA" transform="translate(347,69)"/>
<path d="M0 0 C0.99 0 1.98 0 3 0 C2.34 4.95 1.68 9.9 1 15 C2.32 15.33 3.64 15.66 5 16 C2.625 16.625 2.625 16.625 0 17 C-2 15 -2 15 -2.25 11.3125 C-2.1609339 7.25257007 -1.28029578 3.84088735 0 0 Z " fill="#D3D8DF" transform="translate(421,62)"/>
<path d="M0 0 C0.33 0 0.66 0 1 0 C1.4390692 8.63502756 1.4390692 8.63502756 -2 13 C-5.21451269 14.60725635 -8.43612536 14.05748185 -12 14 C-12 13.01 -12 12.02 -12 11 C-10.88625 11.061875 -9.7725 11.12375 -8.625 11.1875 C-7.42875 11.125625 -6.2325 11.06375 -5 11 C-2.80995134 8.16275753 -2.80995134 8.16275753 -2.5 4.9375 C-2 2 -2 2 0 0 Z " fill="#C9CED5" transform="translate(416,65)"/>
<path d="M0 0 C0.94875 0.04125 1.8975 0.0825 2.875 0.125 C3 2.5 3 2.5 2.875 5.125 C2.215 5.785 1.555 6.445 0.875 7.125 C-1.75 6.75 -1.75 6.75 -4.125 6.125 C-4.75 4.25 -4.75 4.25 -5.125 2.125 C-3.125 0.125 -3.125 0.125 0 0 Z " fill="#213453" transform="translate(576.125,30.875)"/>
<path d="M0 0 C0.99 0 1.98 0 3 0 C2.01 5.61 1.02 11.22 0 17 C-0.99 17 -1.98 17 -3 17 C-2.25339288 11.27601207 -1.17122859 5.65146223 0 0 Z " fill="#CDD2D9" transform="translate(565,62)"/>
<path d="M0 0 C4.875 0.875 4.875 0.875 6 2 C6.2857653 7.52479577 5.74511597 11.76465209 4 17 C3.34 17 2.68 17 2 17 C2.10699219 16.02417969 2.21398437 15.04835938 2.32421875 14.04296875 C2.44410156 12.77066406 2.56398438 11.49835938 2.6875 10.1875 C2.81511719 8.92292969 2.94273437 7.65835938 3.07421875 6.35546875 C3.32931547 3.0376112 3.32931547 3.0376112 1.51953125 1.05078125 C1.01808594 0.70402344 0.51664062 0.35726562 0 0 Z " fill="#EEEFF1" transform="translate(371,62)"/>
<path d="M0 0 C0.94875 0.04125 1.8975 0.0825 2.875 0.125 C2.125 4.875 2.125 4.875 -0.125 7.125 C-2.25 6.75 -2.25 6.75 -4.125 6.125 C-4.75 4.25 -4.75 4.25 -5.125 2.125 C-3.125 0.125 -3.125 0.125 0 0 Z " fill="#182B4B" transform="translate(648.125,30.875)"/>
<path d="M0 0 C0.94875 0.04125 1.8975 0.0825 2.875 0.125 C2.125 4.875 2.125 4.875 -0.125 7.125 C-2.25 6.75 -2.25 6.75 -4.125 6.125 C-4.75 4.25 -4.75 4.25 -5.125 2.125 C-3.125 0.125 -3.125 0.125 0 0 Z " fill="#1A2C4D" transform="translate(397.125,30.875)"/>
<path d="M0 0 C1.67542976 0.28604898 3.34385343 0.61781233 5 1 C4.6875 2.9375 4.6875 2.9375 4 5 C3.01 5.33 2.02 5.66 1 6 C0.67 9.96 0.34 13.92 0 18 C-0.33 18 -0.66 18 -1 18 C-1.02684312 15.18743719 -1.04676188 12.37512759 -1.0625 9.5625 C-1.07087891 8.76005859 -1.07925781 7.95761719 -1.08789062 7.13085938 C-1.0965143 5.08704779 -1.0522815 3.04316098 -1 1 C-0.67 0.67 -0.34 0.34 0 0 Z " fill="#FEF2E0" transform="translate(154,31)"/>
<path d="M0 0 C0.94875 0.04125 1.8975 0.0825 2.875 0.125 C2 5 2 5 0.875 6.125 C-0.79117115 6.16563832 -2.45888095 6.167721 -4.125 6.125 C-4.75 4.25 -4.75 4.25 -5.125 2.125 C-3.125 0.125 -3.125 0.125 0 0 Z " fill="#132646" transform="translate(344.125,70.875)"/>
<path d="M0 0 C1.32 0 2.64 0 4 0 C4.19620767 2.06168985 4.38160753 4.12440998 4.5625 6.1875 C4.66691406 7.33605469 4.77132813 8.48460938 4.87890625 9.66796875 C4.98859985 12.68631199 4.74002389 15.08923936 4 18 C3.67 18 3.34 18 3 18 C2.86722656 16.95199219 2.73445313 15.90398437 2.59765625 14.82421875 C2.41942765 13.44529222 2.24103359 12.06638707 2.0625 10.6875 C1.97548828 9.99720703 1.88847656 9.30691406 1.79882812 8.59570312 C1.40789865 5.59857712 0.9584996 2.87549881 0 0 Z " fill="#C9CFD6" transform="translate(462,62)"/>
<path d="M0 0 C0.66 0 1.32 0 2 0 C1.85786703 1.89611434 1.71113093 3.79188394 1.5625 5.6875 C1.48128906 6.74324219 1.40007813 7.79898438 1.31640625 8.88671875 C1.03548319 11.65086297 0.59843148 14.28945741 0 17 C-0.33 17 -0.66 17 -1 17 C-1.82369618 11.41153825 -2.1568099 6.5526875 -1 1 C-0.67 0.67 -0.34 0.34 0 0 Z " fill="#C9CFD7" transform="translate(528,62)"/>
<path d="M0 0 C0.99 0 1.98 0 3 0 C2.67 2.97 2.34 5.94 2 9 C2.99 9 3.98 9 5 9 C5 9.66 5 10.32 5 11 C3.33388095 11.042721 1.66617115 11.04063832 0 11 C-1 10 -1 10 -1.125 6.625 C-1 3 -1 3 0 0 Z " fill="#C4CAD2" transform="translate(455,68)"/>
<path d="M0 0 C0 0.66 0 1.32 0 2 C-1.0725 2.103125 -2.145 2.20625 -3.25 2.3125 C-7.73022325 3.12354692 -7.73022325 3.12354692 -11 6 C-11.80946422 9.10197397 -11.80946422 9.10197397 -12 12 C-12.33 12 -12.66 12 -13 12 C-13.41668469 7.74981621 -13.44022082 5.64657432 -11 2.0625 C-6.96968211 -0.70834355 -4.80160858 -0.40691598 0 0 Z " fill="#D2D7DD" transform="translate(401,62)"/>
<path d="M0 0 C1.67542976 0.28604898 3.34385343 0.61781233 5 1 C5.33 2.32 5.66 3.64 6 5 C3.03 5 0.06 5 -3 5 C-1 1 -1 1 0 0 Z " fill="#102243" transform="translate(328,64)"/>
<path d="M0 0 C2.89932357 2.39509338 3.50168276 4.31245243 4 8 C6.64 8.33 9.28 8.66 12 9 C11.67 9.66 11.34 10.32 11 11 C3.71641791 11.35820896 3.71641791 11.35820896 1 10 C-0.63983879 6.72032242 -0.17845638 3.62861311 0 0 Z " fill="#C6CBD4" transform="translate(322,68)"/>
<path d="M0 0 C1.67542976 0.28604898 3.34385343 0.61781233 5 1 C5.33 2.32 5.66 3.64 6 5 C3.36 5 0.72 5 -2 5 C-1.125 1.125 -1.125 1.125 0 0 Z " fill="#192A4A" transform="translate(594,23)"/>
<path d="M0 0 C1.65 0.33 3.3 0.66 5 1 C4.67 2.65 4.34 4.3 4 6 C2.35 5.67 0.7 5.34 -1 5 C-0.67 3.35 -0.34 1.7 0 0 Z " fill="#FEF5E9" transform="translate(101,29)"/>
<path d="M0 0 C1.5625 1.625 1.5625 1.625 3 4 C2.75 7 2.75 7 2 10 C1.7215625 11.175625 1.7215625 11.175625 1.4375 12.375 C1.293125 12.91125 1.14875 13.4475 1 14 C0.34 14 -0.32 14 -1 14 C-1.08333357 9.1666528 -0.95261487 4.76307437 0 0 Z " fill="#B7BEC8" transform="translate(317,65)"/>
<path d="M0 0 C0.66 0 1.32 0 2 0 C1.42365861 4.75481646 -0.55068521 7.97048212 -3 12 C-3.66 11.67 -4.32 11.34 -5 11 C-3.55049545 7.2089881 -1.84827434 3.6125362 0 0 Z " fill="#CDD2D9" transform="translate(474,62)"/>
<path d="M0 0 C2.3431213 0.25561323 4.67843403 0.59270772 7 1 C8.60725635 4.21451269 8.05748185 7.43612536 8 11 C7.01 11.495 7.01 11.495 6 12 C5.9071875 10.14375 5.9071875 10.14375 5.8125 8.25 C5.39643071 4.69449876 5.15744896 4.15360875 2.4375 1.5 C1.633125 1.005 0.82875 0.51 0 0 Z " fill="#EDEEF0" transform="translate(505,62)"/>
<path d="M0 0 C1.21816406 0.03480469 1.21816406 0.03480469 2.4609375 0.0703125 C3.68683594 0.09738281 3.68683594 0.09738281 4.9375 0.125 C5.87722656 0.15980469 5.87722656 0.15980469 6.8359375 0.1953125 C6.8359375 0.8553125 6.8359375 1.5153125 6.8359375 2.1953125 C5.5778125 2.2984375 4.3196875 2.4015625 3.0234375 2.5078125 C-0.30363667 2.89140406 -0.30363667 2.89140406 -3.0390625 4.7578125 C-3.4103125 5.2321875 -3.7815625 5.7065625 -4.1640625 6.1953125 C-4.8240625 6.1953125 -5.4840625 6.1953125 -6.1640625 6.1953125 C-3.41682632 0.30837783 -3.41682632 0.30837783 0 0 Z " fill="#DBDFE4" transform="translate(491.1640625,61.8046875)"/>
<path d="M0 0 C0.33 0 0.66 0 1 0 C1.33 2.31 1.66 4.62 2 7 C3.98 7.66 5.96 8.32 8 9 C8 9.66 8 10.32 8 11 C5.69 11 3.38 11 1 11 C-0.98362069 8.08291076 -0.9876191 6.87619096 -0.625 3.25 C-0.41875 2.1775 -0.2125 1.105 0 0 Z " fill="#CACFD6" transform="translate(551,68)"/>
<path d="M0 0 C1.37432457 3.81756824 0.67975039 7.07255329 0 11 C-0.99 11.33 -1.98 11.66 -3 12 C-2.88541307 10.56163249 -2.75790884 9.12429034 -2.625 7.6875 C-2.55539062 6.88699219 -2.48578125 6.08648437 -2.4140625 5.26171875 C-2 3 -2 3 0 0 Z " fill="#D4D9DE" transform="translate(366,67)"/>
<path d="M0 0 C0.99 0.99 1.98 1.98 3 3 C2.85546875 5.69921875 2.85546875 5.69921875 2.1875 8.6875 C1.97480469 9.68136719 1.76210938 10.67523438 1.54296875 11.69921875 C1.36378906 12.45847656 1.18460937 13.21773437 1 14 C0.34 14 -0.32 14 -1 14 C-0.67 9.38 -0.34 4.76 0 0 Z " fill="#CFD4DA" transform="translate(437,65)"/>
<path d="M0 0 C1.65 0 3.3 0 5 0 C5.5625 1.9375 5.5625 1.9375 6 4 C5 5 5 5 2.4375 5.0625 C1.2309375 5.0315625 1.2309375 5.0315625 0 5 C0 3.35 0 1.7 0 0 Z " fill="#FEF8F0" transform="translate(127,26)"/>
<path d="M0 0 C1.65 0 3.3 0 5 0 C5.66 1.32 6.32 2.64 7 4 C4.36 4 1.72 4 -1 4 C-0.67 2.68 -0.34 1.36 0 0 Z " fill="#051639" transform="translate(448,24)"/>
<path d="M0 0 C0.99 0.33 1.98 0.66 3 1 C2.67 4.3 2.34 7.6 2 11 C1.01 11 0.02 11 -1 11 C-0.67 7.37 -0.34 3.74 0 0 Z " fill="#C3C8D1" transform="translate(533,68)"/>
<path d="M0 0 C2.875 -0.125 2.875 -0.125 6 0 C8 2 8 2 8.1953125 3.9453125 C8.13020833 5.96354167 8.06510417 7.98177083 8 10 C7.67 10 7.34 10 7 10 C6.34 7.69 5.68 5.38 5 3 C2.03 2.505 2.03 2.505 -1 2 C-0.67 1.34 -0.34 0.68 0 0 Z " fill="#EDEEF0" transform="translate(408,62)"/>
<path d="M0 0 C1.65 0 3.3 0 5 0 C5 1.65 5 3.3 5 5 C3.35 5 1.7 5 0 5 C0 3.35 0 1.7 0 0 Z " fill="#B8C0CB" transform="translate(409,12)"/>
<path d="M0 0 C0.99 0 1.98 0 3 0 C3 1.32 3 2.64 3 4 C3.99 4 4.98 4 6 4 C5.67 4.66 5.34 5.32 5 6 C4.4225 5.814375 3.845 5.62875 3.25 5.4375 C0.79307475 4.95976454 -0.64397534 5.24270636 -3 6 C-3 5.34 -3 4.68 -3 4 C-2.01 4 -1.02 4 0 4 C0 2.68 0 1.36 0 0 Z " fill="#CBD2D9" transform="translate(357,58)"/>
<path d="M0 0 C2.05078125 0.03255208 4.1015625 0.06510417 6.15234375 0.09765625 C6.15234375 0.42765625 6.15234375 0.75765625 6.15234375 1.09765625 C4.17234375 1.42765625 2.19234375 1.75765625 0.15234375 2.09765625 C1.47234375 2.75765625 2.79234375 3.41765625 4.15234375 4.09765625 C1.51234375 4.42765625 -1.12765625 4.75765625 -3.84765625 5.09765625 C-2.72914438 0.14424653 -2.72914438 0.14424653 0 0 Z " fill="#AFB8C4" transform="translate(393.84765625,19.90234375)"/>
<path d="M0 0 C1.5 1.1875 1.5 1.1875 3 3 C3.1875 5.6875 3.1875 5.6875 3 8 C4.32 8.33 5.64 8.66 7 9 C4.625 9.625 4.625 9.625 2 10 C0 8 0 8 -0.1953125 6.0546875 C-0.13020833 4.03645833 -0.06510417 2.01822917 0 0 Z " fill="#B9C0C9" transform="translate(419,69)"/>
<path d="M0 0 C0.66 0.33 1.32 0.66 2 1 C2 2.65 2 4.3 2 6 C-0.97 6 -3.94 6 -7 6 C-5.68 5.34 -4.36 4.68 -3 4 C-1.26574227 1.96682993 -1.26574227 1.96682993 0 0 Z " fill="#E1E3E7" transform="translate(525,73)"/>
<path d="M0 0 C0.66 0.99 1.32 1.98 2 3 C1.1875 4.9375 1.1875 4.9375 0 7 C-3 8 -3 8 -5.1875 7.0625 C-5.785625 6.711875 -6.38375 6.36125 -7 6 C-6.21625 5.7525 -5.4325 5.505 -4.625 5.25 C-1.67682892 3.84610901 -1.0975223 2.99324263 0 0 Z " fill="#C7CCD4" transform="translate(510,71)"/>
<path d="M0 0 C0 0.33 0 0.66 0 1 C-1.98 1.33 -3.96 1.66 -6 2 C-4.68 2.66 -3.36 3.32 -2 4 C-4.64 4.33 -7.28 4.66 -10 5 C-9.625 3.0625 -9.625 3.0625 -9 1 C-6.04335481 -0.4783226 -3.25770263 -0.06032783 0 0 Z " fill="#B3BBC6" transform="translate(579,20)"/>
<path d="M0 0 C1.32 0 2.64 0 4 0 C4 0.66 4 1.32 4 2 C3.34 2 2.68 2 2 2 C1.34 3.32 0.68 4.64 0 6 C-0.99 6 -1.98 6 -3 6 C-1.125 1.125 -1.125 1.125 0 0 Z " fill="#CED4DB" transform="translate(705,12)"/>
<path d="M0 0 C0.33 0 0.66 0 1 0 C1 2.31 1 4.62 1 7 C-1.31 7 -3.62 7 -6 7 C-5.02433888 5.83040013 -4.044375 4.66438823 -3.0625 3.5 C-2.51722656 2.8503125 -1.97195313 2.200625 -1.41015625 1.53125 C-0.71212891 0.77328125 -0.71212891 0.77328125 0 0 Z " fill="#F3F3F4" transform="translate(430,72)"/>
<path d="M0 0 C1.32 0.66 2.64 1.32 4 2 C3.01 2 2.02 2 1 2 C0.34 4.64 -0.32 7.28 -1 10 C-1.33 10 -1.66 10 -2 10 C-2.1953125 3.9453125 -2.1953125 3.9453125 -2 2 C-1.34 1.34 -0.68 0.68 0 0 Z " fill="#E8EAED" transform="translate(358,62)"/>
<path d="M0 0 C2.05078125 0.03255208 4.1015625 0.06510417 6.15234375 0.09765625 C6.15234375 0.42765625 6.15234375 0.75765625 6.15234375 1.09765625 C3.84234375 1.42765625 1.53234375 1.75765625 -0.84765625 2.09765625 C0.80234375 2.42765625 2.45234375 2.75765625 4.15234375 3.09765625 C4.15234375 3.42765625 4.15234375 3.75765625 4.15234375 4.09765625 C1.51234375 4.42765625 -1.12765625 4.75765625 -3.84765625 5.09765625 C-2.72914438 0.14424653 -2.72914438 0.14424653 0 0 Z " fill="#AFB8C4" transform="translate(644.84765625,19.90234375)"/>
<path d="M0 0 C2 2 2 2 2.125 5.125 C2.08375 6.07375 2.0425 7.0225 2 8 C1.01 8.33 0.02 8.66 -1 9 C-0.67 6.03 -0.34 3.06 0 0 Z " fill="#CACFD6" transform="translate(374,70)"/>
<path d="M0 0 C0.99 0 1.98 0 3 0 C2.67 2.31 2.34 4.62 2 7 C1.01 7.33 0.02 7.66 -1 8 C-0.67 5.36 -0.34 2.72 0 0 Z " fill="#C9CED5" transform="translate(367,54)"/>
<path d="M0 0 C4.875 0.875 4.875 0.875 6 2 C5.71269945 4.33944736 5.38063221 6.6739143 5 9 C4.67 9 4.34 9 4 9 C3.71125 7.88625 3.4225 6.7725 3.125 5.625 C2.30758671 1.99708908 2.30758671 1.99708908 0 0 Z " fill="#ECEEF0" transform="translate(314,62)"/>
<path d="M0 0 C2.29013653 3.4352048 2.17842973 4.985331 2 9 C1.01 9 0.02 9 -1 9 C-0.67 6.03 -0.34 3.06 0 0 Z " fill="#C9CED6" transform="translate(543,70)"/>
<path d="M0 0 C0.66 0 1.32 0 2 0 C1.67 2.97 1.34 5.94 1 9 C0.34 9 -0.32 9 -1 9 C-1.09765625 2.84765625 -1.09765625 2.84765625 -1 1 C-0.67 0.67 -0.34 0.34 0 0 Z " fill="#E7E9EC" transform="translate(550,66)"/>
<path d="M0 0 C0.33 0 0.66 0 1 0 C1.1953125 6.0546875 1.1953125 6.0546875 1 8 C0.34 8.66 -0.32 9.32 -1 10 C-1 9.34 -1 8.68 -1 8 C-1.66 7.67 -2.32 7.34 -3 7 C-2.01 4.69 -1.02 2.38 0 0 Z " fill="#F2F3F4" transform="translate(348,69)"/>
<path d="M0 0 C0.66 0 1.32 0 2 0 C2 0.66 2 1.32 2 2 C2.66 2 3.32 2 4 2 C2.25 5.875 2.25 5.875 0 7 C0 4.69 0 2.38 0 0 Z " fill="#E5E8EB" transform="translate(438,62)"/>
<path d="M0 0 C2 2 2 2 2.125 4.625 C2.08375 5.40875 2.0425 6.1925 2 7 C1.01 7 0.02 7 -1 7 C-0.67 4.69 -0.34 2.38 0 0 Z " fill="#C1C7D0" transform="translate(307,72)"/>
<path d="M0 0 C0 0.99 0 1.98 0 3 C-2.875 3.125 -2.875 3.125 -6 3 C-6.66 2.34 -7.32 1.68 -8 1 C-5.29120665 -0.35439668 -2.99066732 -0.06501451 0 0 Z " fill="#DBDDE2" transform="translate(448,62)"/>
</svg>
